<svg width="150" height="135" viewBox="0 0 150 135" fill="none" xmlns="http://www.w3.org/2000/svg">
<path d="M147.604 108.188L90.3355 9.02083C88.7812 6.32903 86.5458 4.09377 83.8539 2.53969C81.1619 0.985599 78.1084 0.167442 75.0001 0.167442C71.8918 0.167442 68.8382 0.985599 66.1463 2.53969C63.4544 4.09377 61.219 6.32903 59.6647 9.02083L2.39591 108.188C0.841094 110.881 0.0228363 113.935 0.0234378 117.045C0.0240393 120.155 0.843479 123.209 2.39933 125.902C3.95519 128.594 6.1926 130.829 8.88652 132.383C11.5804 133.936 14.6359 134.752 17.7455 134.75H132.255C135.363 134.75 138.417 133.932 141.109 132.377C143.801 130.823 146.036 128.588 147.59 125.896C149.144 123.204 149.963 120.15 149.963 117.042C149.963 113.933 149.144 110.879 147.59 108.188H147.604Z" fill="url(#paint0_linear_249_3134)"/>
<path d="M74.9999 92.25C76.8556 92.2584 78.6475 91.5728 80.0236 90.3277C81.3997 89.0827 82.2607 87.3682 82.4374 85.5208L86.6165 43.7292C86.7652 42.2502 86.6019 40.7565 86.1371 39.3446C85.6724 37.9328 84.9166 36.6341 83.9185 35.5326C82.9205 34.4311 81.7024 33.5512 80.3431 32.9499C78.9838 32.3486 77.5134 32.0392 76.027 32.0417H73.9728C72.4879 32.0416 71.0195 32.3529 69.6622 32.9553C68.305 33.5577 67.0891 34.4379 66.093 35.5391C65.0969 36.6404 64.3426 37.9382 63.879 39.3488C63.4153 40.7595 63.2524 42.2517 63.4009 43.7292L67.5801 85.5208C67.7565 87.3651 68.6149 89.0771 69.9873 90.3218C71.3597 91.5664 73.1472 92.254 74.9999 92.25Z" fill="url(#paint1_linear_249_3134)"/>
<path d="M74.9993 120.583C81.8454 120.583 87.3952 115.034 87.3952 108.187C87.3952 101.341 81.8454 95.7917 74.9993 95.7917C68.1533 95.7917 62.6035 101.341 62.6035 108.187C62.6035 115.034 68.1533 120.583 74.9993 120.583Z" fill="url(#paint2_linear_249_3134)"/>
<defs>
<linearGradient id="paint0_linear_249_3134" x1="32.9747" y1="58.0233" x2="138.846" y2="132.586" gradientUnits="userSpaceOnUse">
<stop stop-color="#FED200"/>
<stop offset="1" stop-color="#F59815"/>
</linearGradient>
<linearGradient id="paint1_linear_249_3134" x1="61.9595" y1="41.2075" x2="87.5728" y2="78.4906" gradientUnits="userSpaceOnUse">
<stop stop-color="#3E4154"/>
<stop offset="1" stop-color="#1B2129"/>
</linearGradient>
<linearGradient id="paint2_linear_249_3134" x1="67.1333" y1="100.321" x2="82.3519" y2="115.54" gradientUnits="userSpaceOnUse">
<stop stop-color="#3E4154"/>
<stop offset="1" stop-color="#1B2129"/>
</linearGradient>
</defs>
</svg>
