<svg width="141" height="135" viewBox="0 0 141 135" fill="none" xmlns="http://www.w3.org/2000/svg">
<path fill-rule="evenodd" clip-rule="evenodd" d="M41.9335 24.46L111.889 94.414C104.109 101.414 52.9555 118.538 9.20346 133.968C8.2496 134.309 7.21842 134.373 6.22972 134.152C5.24103 133.931 4.3354 133.434 3.61806 132.718C2.90071 132.003 2.40109 131.098 2.17724 130.11C1.95339 129.122 2.0145 128.091 2.35346 127.136C17.0095 85.444 35.2255 33.362 41.9335 24.46Z" fill="#6DABFB"/>
<path d="M111.891 94.415C118.243 88.0623 107.733 67.2522 88.415 47.9342C69.097 28.6163 48.2869 18.1058 41.9342 24.4585C35.5815 30.8112 46.0919 51.6213 65.4099 70.9393C84.7278 90.2572 105.538 100.768 111.891 94.415Z" fill="#5678CD"/>
<path fill-rule="evenodd" clip-rule="evenodd" d="M29.1442 52.576C42.8062 83.286 74.6442 101.426 95.2402 102.698C86.8622 106.166 76.0502 110.208 64.0682 114.52C47.2042 104.082 31.0182 86.204 23.5602 67.366C25.3847 62.4222 27.2461 57.492 29.1442 52.576ZM14.2742 92.994C21.7182 106.448 33.9262 116.104 45.3882 121.154C39.8162 123.114 34.1442 125.1 28.4702 127.082C21.1422 120.784 14.5842 112.82 10.2422 104.348C11.5822 100.56 12.9302 96.762 14.2742 92.994Z" fill="#F86394"/>
<path fill-rule="evenodd" clip-rule="evenodd" d="M18.3141 105.748L39.6101 56.002C39.6962 55.8197 39.7446 55.6219 39.7525 55.4205C39.7605 55.219 39.7277 55.018 39.6562 54.8295C39.5847 54.641 39.4759 54.4689 39.3364 54.3234C39.1969 54.1778 39.0294 54.0619 38.8441 53.9826C38.6588 53.9032 38.4593 53.8621 38.2577 53.8615C38.0561 53.861 37.8565 53.9011 37.6707 53.9794C37.485 54.0578 37.3169 54.1728 37.1766 54.3175C37.0363 54.4623 36.9266 54.6339 36.8541 54.822L15.5561 104.566C15.4046 104.931 15.4031 105.341 15.552 105.707C15.7009 106.072 15.9882 106.365 16.3514 106.52C16.7146 106.676 17.1244 106.682 17.4919 106.537C17.8593 106.392 18.1548 106.11 18.3141 105.748Z" fill="white"/>
<path fill-rule="evenodd" clip-rule="evenodd" d="M119.48 59.86C119.625 59.4777 119.884 59.1486 120.221 58.9164C120.557 58.6842 120.957 58.5599 121.366 58.5599C121.775 58.5599 122.174 58.6842 122.511 58.9164C122.848 59.1486 123.106 59.4777 123.252 59.86C124.732 63.742 126.532 68.488 126.532 68.488C126.86 69.3507 127.367 70.134 128.02 70.7862C128.673 71.4385 129.457 71.9449 130.32 72.272L138.948 75.556C139.329 75.7022 139.657 75.9606 139.888 76.2969C140.119 76.6333 140.243 77.0319 140.243 77.44C140.243 77.8481 140.119 78.2467 139.888 78.583C139.657 78.9194 139.329 79.1777 138.948 79.324L130.32 82.606C129.457 82.9331 128.673 83.4395 128.02 84.0918C127.367 84.744 126.86 85.5273 126.532 86.39C126.532 86.39 124.732 91.136 123.252 95.018C123.106 95.4003 122.848 95.7294 122.511 95.9616C122.174 96.1938 121.775 96.3181 121.366 96.3181C120.957 96.3181 120.557 96.1938 120.221 95.9616C119.884 95.7294 119.625 95.4003 119.48 95.018C118.008 91.138 116.2 86.39 116.2 86.39C115.873 85.5277 115.368 84.7446 114.716 84.0923C114.064 83.44 113.282 82.9334 112.42 82.606L103.79 79.324C103.004 79.026 102.49 78.278 102.49 77.44C102.49 76.602 103.004 75.852 103.79 75.556C107.672 74.076 112.418 72.272 112.418 72.272C113.281 71.9455 114.064 71.4393 114.717 70.7869C115.369 70.1345 115.875 69.3509 116.202 68.488L119.48 59.86ZM12.1739 49.354C12.2748 49.0899 12.4535 48.8628 12.6863 48.7025C12.9192 48.5422 13.1952 48.4564 13.4779 48.4564C13.7605 48.4564 14.0366 48.5422 14.2694 48.7025C14.5022 48.8628 14.6809 49.0899 14.7819 49.354L17.0699 55.384C17.2981 55.9844 17.6511 56.5296 18.1054 56.9836C18.5598 57.4377 19.1053 57.7902 19.7059 58.018L25.7379 60.31C26.0019 60.4109 26.2291 60.5896 26.3894 60.8225C26.5497 61.0553 26.6355 61.3313 26.6355 61.614C26.6355 61.8967 26.5497 62.1727 26.3894 62.4055C26.2291 62.6384 26.0019 62.8171 25.7379 62.918L19.7079 65.21C19.1069 65.4375 18.561 65.79 18.1063 66.244C17.6516 66.6981 17.2983 67.2434 17.0699 67.844L14.7819 73.874C14.6809 74.138 14.5022 74.3652 14.2694 74.5255C14.0366 74.6858 13.7605 74.7716 13.4779 74.7716C13.1952 74.7716 12.9192 74.6858 12.6863 74.5255C12.4535 74.3652 12.2748 74.138 12.1739 73.874L9.88187 67.844C9.6544 67.2435 9.30195 66.6981 8.84786 66.244C8.39377 65.7899 7.84841 65.4375 7.24787 65.21L1.21987 62.92C0.955822 62.8191 0.728633 62.6404 0.568356 62.4075C0.408078 62.1747 0.322266 61.8987 0.322266 61.616C0.322266 61.3333 0.408078 61.0573 0.568356 60.8245C0.728633 60.5916 0.955822 60.4129 1.21987 60.312L7.24987 58.018C7.8504 57.7911 8.39582 57.4391 8.84994 56.9853C9.30406 56.5315 9.65649 55.9864 9.88387 55.386L12.1759 49.356L12.1739 49.354Z" fill="#FDBE00"/>
<path fill-rule="evenodd" clip-rule="evenodd" d="M55.1198 1.004C55.1924 0.81353 55.3211 0.649613 55.489 0.533962C55.6569 0.418311 55.8559 0.356384 56.0597 0.356384C56.2636 0.356384 56.4626 0.418311 56.6305 0.533962C56.7984 0.649613 56.9271 0.81353 56.9997 1.004L58.6497 5.35C58.8143 5.78271 59.0687 6.17562 59.3962 6.50278C59.7237 6.82995 60.1169 7.08395 60.5498 7.248L64.8958 8.90001C65.0862 8.97262 65.2501 9.10139 65.3658 9.26926C65.4814 9.43712 65.5434 9.63616 65.5434 9.84C65.5434 10.0439 65.4814 10.2429 65.3658 10.4108C65.2501 10.5786 65.0862 10.7074 64.8958 10.78L60.5498 12.43C60.1167 12.5943 59.7234 12.8486 59.3959 13.1761C59.0683 13.5036 58.814 13.8969 58.6497 14.33L56.9997 18.674C56.9271 18.8645 56.7984 19.0284 56.6305 19.144C56.4626 19.2597 56.2636 19.3216 56.0597 19.3216C55.8559 19.3216 55.6569 19.2597 55.489 19.144C55.3211 19.0284 55.1924 18.8645 55.1198 18.674L53.4678 14.328C53.304 13.8955 53.0503 13.5027 52.7235 13.1755C52.3966 12.8483 52.0041 12.5942 51.5717 12.43L47.2257 10.778C47.0353 10.7054 46.8714 10.5766 46.7557 10.4088C46.6401 10.2409 46.5781 10.0419 46.5781 9.83801C46.5781 9.63416 46.6401 9.43512 46.7557 9.26726C46.8714 9.09939 47.0353 8.97062 47.2257 8.898L51.5717 7.248C52.0042 7.08403 52.3969 6.83002 52.7238 6.5028C53.0506 6.17559 53.3042 5.78264 53.4678 5.35L55.1198 1.004Z" fill="#F86394"/>
<path fill-rule="evenodd" clip-rule="evenodd" d="M84.0962 77.032C85.2822 72.978 88.5902 62.016 94.8502 54.758C94.9873 54.6101 95.0931 54.4362 95.1614 54.2465C95.2297 54.0568 95.259 53.8553 95.2477 53.654C95.2363 53.4527 95.1845 53.2558 95.0954 53.0749C95.0062 52.8941 94.8815 52.7331 94.7287 52.6016C94.5759 52.4701 94.3982 52.3707 94.2061 52.3094C94.0141 52.2481 93.8116 52.2261 93.6109 52.2448C93.4101 52.2635 93.2152 52.3225 93.0378 52.4182C92.8604 52.514 92.7041 52.6445 92.5782 52.802C85.9982 60.43 82.4642 71.928 81.2182 76.192C81.1068 76.5739 81.1517 76.9844 81.343 77.3333C81.5343 77.6821 81.8563 77.9406 82.2382 78.052C82.6201 78.1634 83.0306 78.1185 83.3795 77.9272C83.7283 77.7359 83.9848 77.4139 84.0962 77.032Z" fill="#FDBE00"/>
<path fill-rule="evenodd" clip-rule="evenodd" d="M103.604 45.628C99.2636 46.594 95.6076 49.29 92.5776 52.802C92.4405 52.9499 92.3347 53.1238 92.2664 53.3135C92.1981 53.5032 92.1688 53.7047 92.1801 53.906C92.1914 54.1073 92.2433 54.3043 92.3324 54.4851C92.4216 54.6659 92.5463 54.8269 92.6991 54.9584C92.8519 55.09 93.0296 55.1893 93.2217 55.2506C93.4137 55.3119 93.6162 55.3339 93.8169 55.3152C94.0177 55.2965 94.2126 55.2375 94.39 55.1418C94.5674 55.046 94.7237 54.9155 94.8496 54.758C96.9536 52.318 99.3936 50.302 102.224 49.184C101.974 50.438 102.008 51.638 102.37 52.74C102.93 54.44 104.22 55.41 105.894 55.78C107.25 56.08 108.894 55.948 110.482 55.5C112.322 54.976 114.088 54.032 115.226 52.974C116.226 52.044 116.764 50.99 116.802 50.016C116.842 49.036 116.454 48.036 115.312 47.192C114.22 46.384 112.188 45.656 108.824 45.326C108.36 45.2808 107.894 45.2541 107.428 45.246C107.702 44.872 107.998 44.498 108.308 44.124C112.162 39.47 118.358 34.954 122.378 32.75C122.707 32.549 122.946 32.229 123.045 31.8564C123.144 31.4838 123.096 31.0873 122.911 30.7492C122.726 30.4111 122.417 30.1572 122.05 30.0405C121.682 29.9237 121.284 29.9529 120.938 30.122C115.936 32.862 107.796 38.994 104.122 44.762C103.938 45.052 103.766 45.342 103.604 45.628ZM105.608 48.332L105.546 48.48C105.074 49.664 104.886 50.788 105.218 51.8C105.42 52.42 105.932 52.718 106.54 52.85C107.466 53.056 108.58 52.92 109.666 52.614C111.026 52.228 112.344 51.56 113.186 50.778C113.506 50.48 113.792 50.214 113.806 49.9C113.81 49.82 113.726 49.77 113.644 49.696C113.496 49.5719 113.335 49.4652 113.164 49.378C112.232 48.886 110.736 48.524 108.532 48.308C107.559 48.2116 106.579 48.2197 105.608 48.332Z" fill="#7B5885"/>
<path fill-rule="evenodd" clip-rule="evenodd" d="M73.0799 30.586C72.5079 28.686 71.6359 27.216 70.6839 26.342C69.4839 25.24 68.1279 24.932 66.8299 25.408C65.7699 25.794 64.6379 26.818 63.7659 28.808C62.6959 31.248 62.3459 33.088 62.4379 34.372C62.5299 35.596 62.9919 36.452 63.6359 37.024C64.6119 37.89 66.1739 38.16 68.0539 37.598C69.0132 37.2938 69.9315 36.8726 70.7879 36.344C70.6159 40.874 68.6779 46.436 63.5199 51.248C63.3758 51.3826 63.2597 51.5443 63.1781 51.7238C63.0965 51.9032 63.0511 52.097 63.0444 52.2941C63.0377 52.4911 63.0699 52.6876 63.1391 52.8722C63.2084 53.0568 63.3133 53.2259 63.4479 53.37C63.5825 53.5141 63.7442 53.6302 63.9236 53.7118C64.1031 53.7934 64.2969 53.8388 64.494 53.8455C64.691 53.8522 64.8875 53.82 65.0721 53.7507C65.2567 53.6815 65.4258 53.5766 65.5699 53.442C72.3159 47.146 74.1499 39.696 73.7279 34.156C74.1819 33.752 74.6279 33.318 75.0659 32.856C78.4759 29.252 81.2279 24.004 80.8319 18.274C80.8236 18.0738 80.7752 17.8774 80.6897 17.6962C80.6042 17.515 80.4833 17.3528 80.3341 17.2192C80.1849 17.0855 80.0105 16.983 79.821 16.9179C79.6316 16.8527 79.431 16.8262 79.2311 16.8398C79.0313 16.8534 78.8362 16.907 78.6573 16.9972C78.4785 17.0875 78.3195 17.2127 78.1899 17.3654C78.0602 17.518 77.9624 17.6952 77.9023 17.8863C77.8422 18.0774 77.821 18.2786 77.8399 18.478C78.1199 22.508 76.4999 26.238 74.2959 29.134C73.9059 29.644 73.4999 30.128 73.0799 30.586ZM70.5599 32.894C70.3599 31.774 70.0399 30.784 69.6419 29.97C69.3499 29.374 69.0219 28.886 68.6539 28.55C68.4499 28.362 68.2499 28.214 68.0299 28.198C67.7939 28.182 67.5939 28.354 67.3719 28.594C67.0639 28.932 66.7819 29.404 66.5159 30.014C65.8279 31.574 65.4779 32.8 65.4299 33.74C65.4039 34.224 65.4039 34.584 65.6279 34.78C65.7639 34.9 65.9639 34.906 66.1879 34.902C66.4939 34.898 66.8319 34.834 67.1919 34.724C68.2199 34.416 69.3819 33.784 70.5599 32.894ZM118.394 21.63C111.358 22.002 104.614 26.23 100.414 32.608C100.209 32.94 100.141 33.3389 100.225 33.7201C100.309 34.1013 100.538 34.4346 100.864 34.6494C101.19 34.8642 101.587 34.9434 101.971 34.8704C102.354 34.7973 102.694 34.5776 102.918 34.258C106.578 28.7 112.418 24.952 118.55 24.628C118.747 24.6178 118.94 24.5688 119.118 24.484C119.296 24.3993 119.455 24.2802 119.587 24.1338C119.719 23.9874 119.821 23.8164 119.887 23.6306C119.953 23.4448 119.981 23.2479 119.971 23.051C119.961 22.8541 119.912 22.6612 119.827 22.4833C119.742 22.3053 119.623 22.1458 119.477 22.0139C119.33 21.8819 119.159 21.7801 118.973 21.7143C118.788 21.6484 118.591 21.6198 118.394 21.63Z" fill="#FDBE00"/>
<path fill-rule="evenodd" clip-rule="evenodd" d="M88.7799 38.108C94.8379 28.342 97.3599 16.588 89.3679 5.816C89.2538 5.64989 89.1074 5.50849 88.9374 5.40023C88.7674 5.29198 88.5773 5.21909 88.3785 5.18593C88.1797 5.15277 87.9762 5.16001 87.7803 5.20722C87.5844 5.25443 87.4 5.34064 87.2381 5.4607C87.0762 5.58076 86.9402 5.73222 86.8381 5.90602C86.7361 6.07982 86.6701 6.2724 86.6442 6.47227C86.6182 6.67213 86.6328 6.87518 86.687 7.06928C86.7413 7.26338 86.8341 7.44456 86.9599 7.602C94.1179 17.252 91.6559 27.776 86.2299 36.528C86.0256 36.866 85.9629 37.271 86.0553 37.6549C86.1478 38.0389 86.3879 38.371 86.7236 38.579C87.0594 38.787 87.4636 38.8542 87.8486 38.766C88.2335 38.6779 88.5682 38.4414 88.7799 38.108Z" fill="#7B5885"/>
<path d="M115.96 18.022C118.691 18.022 120.905 15.8077 120.905 13.0762C120.905 10.3447 118.691 8.13032 115.96 8.13032C113.228 8.13032 111.014 10.3447 111.014 13.0762C111.014 15.8077 113.228 18.022 115.96 18.022Z" fill="#FDBE00"/>
<path d="M21.4771 29.554C24.2086 29.554 26.423 27.3397 26.423 24.6082C26.423 21.8767 24.2086 19.6623 21.4771 19.6623C18.7456 19.6623 16.5312 21.8767 16.5312 24.6082C16.5312 27.3397 18.7456 29.554 21.4771 29.554Z" fill="#FDBE00"/>
<path d="M99.4283 122.104C102.16 122.104 104.374 119.89 104.374 117.158C104.374 114.427 102.16 112.212 99.4283 112.212C96.6968 112.212 94.4824 114.427 94.4824 117.158C94.4824 119.89 96.6968 122.104 99.4283 122.104Z" fill="#F86394"/>
</svg>
