<svg width="221" height="221" viewBox="0 0 221 221" fill="none" xmlns="http://www.w3.org/2000/svg">
<path d="M126.591 10.5746L135.502 1.41864C138.053 -1.20228 142.49 -0.0135395 143.388 3.53196L146.528 15.917C149.633 28.1683 162.235 35.4436 174.397 32.0077L186.693 28.5339C190.213 27.5394 193.461 30.7875 192.466 34.3071L188.992 46.6028C185.556 58.7656 192.831 71.3669 205.083 74.4725L217.468 77.6118C221.014 78.5105 222.202 82.9474 219.581 85.4983L210.425 94.4096C201.368 103.225 201.368 117.776 210.425 126.591L219.581 135.502C222.202 138.053 221.014 142.49 217.468 143.388L205.083 146.528C192.832 149.633 185.556 162.235 188.992 174.397L192.466 186.693C193.461 190.213 190.213 193.461 186.693 192.466L174.397 188.992C162.235 185.556 149.633 192.831 146.528 205.083L143.388 217.468C142.49 221.014 138.053 222.202 135.502 219.581L126.591 210.426C117.775 201.368 103.225 201.368 94.4095 210.426L85.4983 219.581C82.9473 222.202 78.5105 221.014 77.6118 217.468L74.4725 205.083C71.3668 192.832 58.7655 185.557 46.6028 188.992L34.307 192.466C30.7874 193.461 27.5394 190.213 28.5339 186.693L32.0077 174.397C35.444 162.235 28.1687 149.633 15.917 146.528L3.53193 143.388C-0.013562 142.49 -1.2023 138.053 1.41862 135.502L10.5746 126.591C19.6317 117.775 19.6317 103.225 10.5746 94.4096L1.41819 85.4983C-1.20273 82.9474 -0.0139934 78.5105 3.5315 77.6118L15.9166 74.4725C28.1678 71.3669 35.4431 58.7656 32.0073 46.6028L28.5334 34.3071C27.5389 30.7875 30.787 27.5394 34.3066 28.5339L46.6023 32.0077C58.7651 35.444 71.3664 28.1687 74.4721 15.917L77.6114 3.53196C78.5101 -0.0135395 82.9469 -1.20228 85.4979 1.41864L94.4091 10.5746C103.225 19.6317 117.775 19.6317 126.591 10.5746Z" fill="#FFE177"/>
<path d="M210.426 94.4093L219.582 85.4981C222.203 82.9471 221.014 78.5103 217.469 77.6116L205.083 74.4723C192.832 71.3666 185.557 58.7653 188.993 46.6025L192.467 34.3068C193.462 30.7872 190.213 27.5391 186.694 28.5336L174.398 32.0074C172.891 32.4337 171.343 32.7019 169.78 32.8077C176.742 46.5999 180.668 62.186 180.668 78.6907C180.668 134.871 134.871 180.668 78.6905 180.668C62.1858 180.668 46.5997 176.742 32.8075 169.781C32.7017 171.343 32.4335 172.891 32.0072 174.398L28.5334 186.694C27.5389 190.213 30.787 193.461 34.3066 192.467L46.6023 188.993C58.7651 185.557 71.3664 192.832 74.472 205.084L77.6114 217.469C78.51 221.014 82.9469 222.203 85.4979 219.582L94.4091 210.426C103.224 201.369 117.775 201.369 126.59 210.426L135.501 219.582C138.052 222.203 142.489 221.014 143.388 217.469L146.527 205.084C149.633 192.832 162.234 185.557 174.397 188.993L186.693 192.467C190.212 193.461 193.46 190.213 192.466 186.694L188.992 174.398C185.556 162.235 192.831 149.634 205.082 146.528L217.467 143.389C221.013 142.49 222.201 138.053 219.581 135.502L210.425 126.591C201.369 117.775 201.369 103.225 210.426 94.4093Z" fill="#FFD15B"/>
<path d="M210.426 94.4093L219.582 85.4981C222.203 82.9471 221.014 78.5103 217.469 77.6116L205.083 74.4723C192.832 71.3666 185.557 58.7653 188.993 46.6025L192.467 34.3068C193.462 30.7872 190.213 27.5391 186.694 28.5336L174.398 32.0074C172.891 32.4337 171.343 32.7019 169.78 32.8077C176.742 46.5999 180.668 62.186 180.668 78.6907C180.668 134.871 134.871 180.668 78.6905 180.668C62.1858 180.668 46.5997 176.742 32.8075 169.781C32.7017 171.343 32.4335 172.891 32.0072 174.398L28.5334 186.694C27.5389 190.213 30.787 193.461 34.3066 192.467L46.6023 188.993C58.7651 185.557 71.3664 192.832 74.472 205.084L77.6114 217.469C78.51 221.014 82.9469 222.203 85.4979 219.582L94.4091 210.426C103.224 201.369 117.775 201.369 126.59 210.426L135.501 219.582C138.052 222.203 142.489 221.014 143.388 217.469L146.527 205.084C149.633 192.832 162.234 185.557 174.397 188.993L186.693 192.467C190.212 193.461 193.46 190.213 192.466 186.694L188.992 174.398C185.556 162.235 192.831 149.634 205.082 146.528L217.467 143.389C221.013 142.49 222.201 138.053 219.581 135.502L210.425 126.591C201.369 117.775 201.369 103.225 210.426 94.4093Z" fill="#FFD15B"/>
<path d="M110.499 185.345C151.835 185.345 185.344 151.836 185.344 110.5C185.344 69.1644 151.835 35.6552 110.499 35.6552C69.1634 35.6552 35.6543 69.1644 35.6543 110.5C35.6543 151.836 69.1634 185.345 110.499 185.345Z" fill="#FFC344"/>
<path d="M155.352 50.5788C164.723 63.0787 170.275 78.6061 170.275 95.431C170.275 136.767 136.766 170.276 95.4303 170.276C78.6054 170.276 63.078 164.724 50.5781 155.352C64.2305 173.562 85.9886 185.345 110.499 185.345C151.835 185.345 185.344 151.836 185.344 110.5C185.344 85.9893 173.561 64.2312 155.352 50.5788Z" fill="#FEB237"/>
</svg>
