<svg width="20" height="20" viewBox="0 0 20 20" fill="none" xmlns="http://www.w3.org/2000/svg">
<path d="M9.81 5.8H5" stroke="#E6E6FA" stroke-width="1.5" stroke-linecap="round" stroke-linejoin="round"/>
<path d="M7.41016 4.99999V5.79999" stroke="#E6E6FA" stroke-width="1.5" stroke-linecap="round" stroke-linejoin="round"/>
<path d="M8.609 5.802C8.609 7.87 6.993 9.545 5 9.545" stroke="#E6E6FA" stroke-width="1.5" stroke-linecap="round" stroke-linejoin="round"/>
<path d="M9.813 9.54499C8.948 9.54499 8.174 9.08399 7.625 8.35699" stroke="#E6E6FA" stroke-width="1.5" stroke-linecap="round" stroke-linejoin="round"/>
<path fill-rule="evenodd" clip-rule="evenodd" d="M17 19H3C1.895 19 1 18.105 1 17V3C1 1.895 1.895 1 3 1H17C18.105 1 19 1.895 19 3V17C19 18.105 18.105 19 17 19Z" stroke="#E6E6FA" stroke-width="1.5" stroke-linecap="round" stroke-linejoin="round"/>
<path d="M12.7271 10.455L10.4551 15" stroke="#E6E6FA" stroke-width="1.5" stroke-linecap="round" stroke-linejoin="round"/>
<path d="M14.9996 15L12.7266 10.455" stroke="#E6E6FA" stroke-width="1.5" stroke-linecap="round" stroke-linejoin="round"/>
<path d="M10.8555 14.198H14.5985" stroke="#E6E6FA" stroke-width="1.5" stroke-linecap="round" stroke-linejoin="round"/>
</svg>
