<svg width="20" height="19" viewBox="0 0 20 19" fill="none" xmlns="http://www.w3.org/2000/svg">
<path d="M3.59656 18.2761L3.60741 18.2649C3.62099 18.2781 3.63602 18.2915 3.65249 18.3051C4.23627 18.5996 4.8583 18.8112 5.50058 18.9338L5.50029 18.9353C6.25272 19.043 7.122 19.0335 7.9257 18.7744C9.30065 18.3312 10.1425 17.2849 10.4279 15.6643C11.0079 12.3709 7.97943 10.6106 7.36644 10.2911C7.33101 10.2727 7.30108 10.2452 7.27967 10.2114C7.25827 10.1777 7.24615 10.1389 7.24454 10.099C7.24294 10.059 7.25189 10.0194 7.27051 9.98404C7.28913 9.94868 7.31675 9.91887 7.35058 9.8976C9.39024 8.60834 10.0183 7.08093 9.21738 5.3577C8.78313 4.42338 8.12816 3.82515 7.27073 3.57994C5.1754 2.98033 2.48337 4.5836 1.83607 4.99878L3.0558 7.10946C3.72704 6.64676 6.43479 4.94106 7.98697 6.35333C8.13331 6.48472 8.2511 6.64477 8.33304 6.82356C8.41497 7.00235 8.4593 7.19607 8.46329 7.3927C8.46805 7.58475 8.43332 7.77574 8.36126 7.95382C8.28919 8.13191 8.18131 8.2933 8.04432 8.42798C7.16737 9.29844 5.6809 9.19935 4.51558 8.93148L5.30909 11.7471C5.77636 11.6207 7.09539 11.3529 7.99997 12.0398C8.61255 12.505 8.90724 13.3061 8.87586 14.4209C8.85817 15.0493 8.63305 15.5657 8.20678 15.9557C7.2257 16.8533 5.5307 16.7614 5.459 16.7571C3.43287 16.6199 1.8849 15.6507 0.85722 13.8763C0.479741 13.2124 0.191514 12.5015 0 11.7622C0.0611397 12.6307 0.226869 13.7056 0.62391 14.7598C1.23482 16.3821 2.23095 17.5587 3.59656 18.2761Z" fill="#0D0B1F"/>
<path d="M18.6539 8.91454C18.1966 7.73574 17.4909 6.87833 16.5566 6.36619C15.6689 5.87964 14.8361 5.76111 14.0815 6.0137C12.9894 6.37931 12.0364 7.49383 11.1682 9.42118C10.6458 10.5807 9.95759 10.9626 9.47198 11.0787C9.34743 11.1085 9.22009 11.1251 9.09206 11.1281C9.25035 11.2762 9.40134 11.4318 9.54449 11.5946C10.8763 11.5974 11.8686 11.3679 12.575 10.8935C13.1983 10.4749 13.4981 9.91995 13.7171 9.51481L13.7506 9.45265C14.0107 8.97075 14.2795 8.47247 14.6872 8.08167C15.1806 7.60886 15.8268 7.39646 16.3735 7.5277C16.907 7.65577 17.3595 8.07934 17.7185 8.78668C18.2779 9.88853 18.4181 11.1344 18.1034 12.205C17.7576 13.3815 16.8259 14.347 15.7299 14.6647C14.1301 15.1284 12.7435 14.1628 12.0282 12.9566C12.0273 12.9871 12.0267 13.0211 12.0264 13.0589C12.023 13.6313 12.0449 14.3787 12.2471 15.0893C12.5291 16.0807 13.2605 16.8664 14.2036 17.1917C15.1183 17.5071 16.1054 17.3511 16.9116 16.7637C17.8835 16.0556 18.647 14.7942 19.0064 13.3029C19.1661 12.6405 19.2294 12.0704 19.2001 11.5598C19.1617 10.897 19.0363 9.90031 18.6539 8.91454ZM10.8907 4.72994C12.4172 5.45856 14.5437 4.98672 17.2112 3.32782C17.2278 3.31764 17.2421 3.30399 17.253 3.28782C17.2638 3.27164 17.2711 3.25331 17.2743 3.23407C17.2776 3.21521 17.2768 3.19586 17.272 3.17732C17.2672 3.15878 17.2585 3.14149 17.2464 3.12663L16.0743 1.66744C16.0521 1.63984 16.02 1.62194 15.9849 1.6175C15.9497 1.61306 15.9142 1.62243 15.8859 1.64364C14.2057 2.93046 12.6521 3.43171 11.2681 3.13356C9.92633 2.84445 9.05146 1.8624 8.58203 1.16187C8.68247 1.68323 8.83965 2.19204 9.05077 2.67921C9.48714 3.66567 10.1062 4.35544 10.8907 4.72994Z" fill="#0D0B1F"/>
<path d="M13.088 0.958538L11.9825 0L10.9023 1.06659L12.0159 2.06157L13.088 0.958538Z" fill="#0D0B1F"/>
</svg>
