<svg width="20" height="20" viewBox="0 0 20 20" fill="none" xmlns="http://www.w3.org/2000/svg">
<path d="M17.875 20H2.12502C0.937485 20 0 19.0625 0 17.875V2.12502C0 0.937485 0.937485 0 2.12502 0H17.875C19.0625 0 20 0.937485 20 2.12502V17.875C20 19.0625 19.0625 20 17.875 20Z" fill="#5CA4DA"/>
<path d="M16.125 0C15.375 3.25002 13.4375 6.75 10.4375 9.75002C7.25001 12.9375 3.43749 14.9375 0 15.5625V2.12502C0 0.937486 0.937485 0 2.12502 0H16.125Z" fill="#6DAFE0"/>
<path d="M7.9375 5.12499C7.9375 5.12499 10.4375 7.81251 12.125 5.12499L13.1875 6.68751C12.875 7.25001 9.43753 9 7.9375 5.12499Z" fill="white"/>
<path d="M3.6875 7.56251L4.8125 9.25001C4.8125 9.25001 6.5 6.87503 8.31248 8.37501C8.31248 8.37501 8.93747 10.0625 6.31248 9.68753L6.68747 11.375C6.68747 11.375 8.43746 10.75 8.93747 12.375C8.93747 12.375 9.31245 14.75 5.99999 14.0625C5.99999 14.0625 3.6875 13.25 2.8125 11.3125C2.8125 11.3125 2.87499 13.7501 5.56251 15.3125C5.56251 15.3125 8.49999 16.9375 9.75002 14C9.75002 14 10.125 13.1875 9.75002 11.875C9.75002 11.875 11.625 12.75 13.0625 9.68748C13.0625 9.68748 14.25 7.99998 16.0625 10.125C16.0625 10.125 17.1251 12 15.4376 13.6875C15.4376 13.6875 12.6875 15.75 10.8126 13.1875C10.8126 13.1875 10.8126 15.3125 12.8126 15.6875C12.8126 15.6875 15.5001 16 16.4376 13.875C16.4376 13.875 17.8126 11.5001 16.5001 9.00005C16.5001 9.00005 15.2501 6.87503 12.6251 7.75007C12.6251 7.75007 11.625 8.12505 11.3751 9.56255C11.3751 9.56255 10.8126 11.375 9.43757 11.1251C9.43757 11.1251 8.75008 10.5001 8.06256 10.4376C8.06256 10.4376 9.50006 9.62508 9.00005 7.87509C9.00005 7.87509 8.62506 5.62509 5.81256 6.06261C5.81252 6.12501 4.56249 6.56249 3.6875 7.56251ZM10 5.68749L9.06249 4.75001L10 3.62501L11.0625 4.68752L10 5.68749Z" fill="white"/>
</svg>
