<svg width="40" height="40" viewBox="0 0 40 40" fill="none" xmlns="http://www.w3.org/2000/svg">
<path d="M10.3662 8.51667C12.9695 6.32333 16.3279 5 19.9995 5C28.2845 5 34.9995 11.715 34.9995 20C34.9995 22.4117 34.4162 24.6833 33.4045 26.7017L28.9362 24.4683" stroke="#E6E6FA" stroke-width="1.5" stroke-linecap="round" stroke-linejoin="round"/>
<path d="M29.6333 31.4833C27.03 33.6767 23.6717 35 20 35C11.715 35 5 28.2833 5 20C5 17.5883 5.58333 15.3167 6.595 13.2983L11.0633 15.5317" stroke="#E6E6FA" stroke-width="1.5" stroke-linecap="round" stroke-linejoin="round"/>
<path d="M20.0003 11.6667V13.75" stroke="#E6E6FA" stroke-width="1.5" stroke-linecap="round" stroke-linejoin="round"/>
<path d="M20.0003 28.3333V26.25" stroke="#E6E6FA" stroke-width="1.5" stroke-linecap="round" stroke-linejoin="round"/>
<path d="M24.1447 16.6667C24.0363 15.04 22.6947 13.75 21.0413 13.75H18.758C17.1413 13.75 15.833 15.06 15.833 16.675C15.833 18.0167 16.7463 19.1867 18.0463 19.5133L21.9513 20.4933C23.253 20.82 24.1647 21.99 24.1647 23.3317C24.1647 24.9483 22.8547 26.2567 21.2397 26.2567H18.9563C17.2997 26.2567 15.958 24.9633 15.8513 23.3333" stroke="#E6E6FA" stroke-width="1.5" stroke-linecap="round" stroke-linejoin="round"/>
</svg>
