<svg width="20" height="20" viewBox="0 0 20 20" fill="none" xmlns="http://www.w3.org/2000/svg">
<path d="M11.4562 0.956978L12.2626 0.128384C12.4935 -0.108804 12.895 -0.00122537 12.9763 0.319634L13.2604 1.44045C13.5415 2.54917 14.6819 3.20756 15.7826 2.89663L16.8953 2.58225C17.2138 2.49225 17.5078 2.7862 17.4178 3.10471L17.1034 4.21745C16.7924 5.31815 17.4508 6.45854 18.5596 6.73959L19.6804 7.0237C20.0012 7.10502 20.1088 7.50655 19.8716 7.73741L19.043 8.54385C18.2234 9.34163 18.2234 10.6584 19.043 11.4562L19.8716 12.2626C20.1088 12.4935 20.0012 12.895 19.6804 12.9763L18.5596 13.2604C17.4508 13.5415 16.7924 14.6819 17.1034 15.7826L17.4178 16.8953C17.5078 17.2138 17.2138 17.5078 16.8953 17.4178L15.7826 17.1034C14.6819 16.7924 13.5415 17.4508 13.2604 18.5596L12.9763 19.6804C12.895 20.0012 12.4935 20.1088 12.2626 19.8716L11.4562 19.043C10.6584 18.2234 9.34158 18.2234 8.54385 19.043L7.7374 19.8716C7.50655 20.1088 7.10502 20.0012 7.02369 19.6804L6.73959 18.5596C6.45854 17.4508 5.31815 16.7924 4.21744 17.1034L3.10471 17.4178C2.78619 17.5078 2.49225 17.2138 2.58225 16.8953L2.89662 15.7826C3.2076 14.6819 2.5492 13.5415 1.44045 13.2604L0.319632 12.9763C-0.00122733 12.895 -0.108805 12.4935 0.128382 12.2626L0.956976 11.4562C1.77662 10.6584 1.77662 9.34159 0.956976 8.54385L0.128343 7.73741C-0.108845 7.50655 -0.00126638 7.10502 0.319593 7.0237L1.44041 6.73959C2.54912 6.45854 3.20752 5.31815 2.89658 4.21745L2.58221 3.10471C2.49221 2.7862 2.78616 2.49225 3.10467 2.58225L4.21741 2.89663C5.31811 3.2076 6.4585 2.5492 6.73955 1.44045L7.02365 0.319634C7.10498 -0.00122537 7.50651 -0.108804 7.73737 0.128384L8.54381 0.956978C9.34158 1.77663 10.6584 1.77663 11.4562 0.956978Z" fill="#FFE177"/>
<path d="M19.0427 8.54383L19.8713 7.73738C20.1085 7.50652 20.0009 7.105 19.6801 7.02367L18.5593 6.73957C17.4506 6.45852 16.7922 5.31813 17.1031 4.21742L17.4175 3.10469C17.5075 2.78617 17.2136 2.49223 16.895 2.58223L15.7823 2.8966C15.6459 2.93518 15.5059 2.95945 15.3644 2.96902C15.9944 4.21719 16.3497 5.6277 16.3497 7.12133C16.3497 12.2055 12.2052 16.35 7.12099 16.35C5.62735 16.35 4.21685 15.9948 2.96868 15.3648C2.95911 15.5062 2.93483 15.6462 2.89626 15.7826L2.58188 16.8954C2.49188 17.2139 2.78583 17.5078 3.10435 17.4178L4.21708 17.1034C5.31778 16.7925 6.45817 17.4509 6.73923 18.5596L7.02333 19.6804C7.10466 20.0013 7.50618 20.1089 7.73704 19.8717L8.54349 19.0431C9.34126 18.2234 10.6581 18.2234 11.4558 19.0431L12.2622 19.8717C12.4931 20.1089 12.8946 20.0013 12.9759 19.6804L13.26 18.5596C13.5411 17.4509 14.6815 16.7925 15.7822 17.1034L16.8949 17.4178C17.2134 17.5078 17.5074 17.2139 17.4174 16.8954L17.103 15.7826C16.792 14.6819 17.4504 13.5415 18.5592 13.2605L19.68 12.9764C20.0008 12.895 20.1084 12.4935 19.8712 12.2627L19.0426 11.4562C18.2231 10.6584 18.2231 9.3416 19.0427 8.54383Z" fill="#FFD15B"/>
<path d="M19.0427 8.54383L19.8713 7.73738C20.1085 7.50652 20.0009 7.105 19.6801 7.02367L18.5593 6.73957C17.4506 6.45852 16.7922 5.31813 17.1031 4.21742L17.4175 3.10469C17.5075 2.78617 17.2136 2.49223 16.895 2.58223L15.7823 2.8966C15.6459 2.93518 15.5059 2.95945 15.3644 2.96902C15.9944 4.21719 16.3497 5.6277 16.3497 7.12133C16.3497 12.2055 12.2052 16.35 7.12099 16.35C5.62735 16.35 4.21685 15.9948 2.96868 15.3648C2.95911 15.5062 2.93483 15.6462 2.89626 15.7826L2.58188 16.8954C2.49188 17.2139 2.78583 17.5078 3.10435 17.4178L4.21708 17.1034C5.31778 16.7925 6.45817 17.4509 6.73923 18.5596L7.02333 19.6804C7.10466 20.0013 7.50618 20.1089 7.73704 19.8717L8.54349 19.0431C9.34126 18.2234 10.6581 18.2234 11.4558 19.0431L12.2622 19.8717C12.4931 20.1089 12.8946 20.0013 12.9759 19.6804L13.26 18.5596C13.5411 17.4509 14.6815 16.7925 15.7822 17.1034L16.8949 17.4178C17.2134 17.5078 17.5074 17.2139 17.4174 16.8954L17.103 15.7826C16.792 14.6819 17.4504 13.5415 18.5592 13.2605L19.68 12.9764C20.0008 12.895 20.1084 12.4935 19.8712 12.2627L19.0426 11.4562C18.2231 10.6584 18.2231 9.3416 19.0427 8.54383Z" fill="#FFD15B"/>
<path d="M9.99984 16.7733C13.7406 16.7733 16.7731 13.7408 16.7731 10C16.7731 6.25922 13.7406 3.22672 9.99984 3.22672C6.25906 3.22672 3.22656 6.25922 3.22656 10C3.22656 13.7408 6.25906 16.7733 9.99984 16.7733Z" fill="#FFC344"/>
<path d="M14.0589 4.57727C14.907 5.70848 15.4095 7.11367 15.4095 8.63629C15.4095 12.3771 12.377 15.4096 8.63617 15.4096C7.11355 15.4096 5.70836 14.9071 4.57715 14.059C5.81266 15.707 7.78172 16.7733 9.99988 16.7733C13.7407 16.7733 16.7732 13.7408 16.7732 10C16.7732 7.78184 15.7068 5.81277 14.0589 4.57727Z" fill="#FEB237"/>
</svg>
