<svg width="40" height="40" viewBox="0 0 40 40" fill="none" xmlns="http://www.w3.org/2000/svg">
<path d="M35.0066 16.6653V28.3368C35.0066 32.0202 32.0206 35.0062 28.3372 35.0062H11.6636C7.98015 35.0062 4.99414 32.0202 4.99414 28.3368V11.6632C4.99414 7.97976 7.98015 4.99375 11.6636 4.99375H21.6678" stroke="#E6E6FA" stroke-width="2" stroke-linecap="round" stroke-linejoin="round"/>
<path d="M4.99414 21.6674L7.15364 19.5078C7.90754 18.7539 8.93004 18.3304 9.99622 18.3304C11.0624 18.3304 12.0849 18.7539 12.8388 19.5078L20.0004 26.6694" stroke="#E6E6FA" stroke-width="2" stroke-linecap="round" stroke-linejoin="round"/>
<path d="M11.668 35.0062L22.1643 24.5099C23.7342 22.94 26.2795 22.94 27.8494 24.5099L34.4174 31.0779" stroke="#E6E6FA" stroke-width="2" stroke-linecap="round" stroke-linejoin="round"/>
<path d="M30.0043 4.99375L25.8359 9.16216" stroke="#E6E6FA" stroke-width="2" stroke-linecap="round" stroke-linejoin="round"/>
<path d="M34.1723 9.16216L30.0039 4.99375" stroke="#E6E6FA" stroke-width="2" stroke-linecap="round" stroke-linejoin="round"/>
<path d="M30.0046 4.99375V13.3306" stroke="#E6E6FA" stroke-width="2" stroke-linecap="round" stroke-linejoin="round"/>
</svg>
